<svg xmlns="http://www.w3.org/2000/svg" version="1.1" xmlns:xlink="http://www.w3.org/1999/xlink" xmlns:svgjs="http://svgjs.com/svgjs" width="1440" height="1440" preserveAspectRatio="none" viewBox="0 0 1440 1440"><g mask="url(&quot;#SvgjsMask1018&quot;)" fill="none"><rect width="1440" height="1440" x="0" y="0" fill="url(#SvgjsLinearGradient1019)"></rect><path d="M 0,611 C 57.6,517.2 172.8,128.4 288,142 C 403.2,155.6 460.8,651 576,679 C 691.2,707 748.8,274.2 864,282 C 979.2,289.8 1036.8,771.4 1152,718 C 1267.2,664.6 1382.4,155.6 1440,15L1440 1440L0 1440z" fill="#184a7e"></path><path d="M 0,925 C 96,996.2 288,1285 480,1281 C 672,1277 768,928.4 960,905 C 1152,881.6 1344,1112.2 1440,1164L1440 1440L0 1440z" fill="#2264ab"></path></g><defs><mask id="SvgjsMask1018"><rect width="1440" height="1440" fill="#ffffff"></rect></mask><linearGradient x1="0%" y1="0%" x2="100%" y2="100%" gradientUnits="userSpaceOnUse" id="SvgjsLinearGradient1019"><stop stop-color="#0e2a47" offset="0"></stop><stop stop-color="#00459e" offset="1"></stop></linearGradient></defs></svg>